HIERARCHY
ROOT Hips
{
	OFFSET 0.00000 0.00000 0.00000
	CHANNELS 6 Xposition Yposition Zposition Zrotation Yrotation Xrotation 
	JOINT LHipJoint
	{
		OFFSET 0 0 0
		CHANNELS 3 Zrotation Yrotation Xrotation
		JOINT LeftUpLeg
		{
			OFFSET 1.64549 -1.70879 0.84566
			CHANNELS 3 Zrotation Yrotation Xrotation
			JOINT LeftLeg
			{
				OFFSET 2.24963 -6.18082 0.00000
				CHANNELS 3 Zrotation Yrotation Xrotation
				JOINT LeftFoot
				{
					OFFSET 2.71775 -7.46697 0.00000
					CHANNELS 3 Zrotation Yrotation Xrotation
					JOINT LeftToeBase
					{
						OFFSET 0.18768 -0.51564 2.24737
						CHANNELS 3 Zrotation Yrotation Xrotation
						End Site
						{
							OFFSET 0.00000 -0.00000 1.15935
						}
					}
				}
			}
		}
	}
	JOINT RHipJoint
	{
		OFFSET 0 0 0
		CHANNELS 3 Zrotation Yrotation Xrotation
		JOINT RightUpLeg
		{
			OFFSET -1.58830 -1.70879 0.84566
			CHANNELS 3 Zrotation Yrotation Xrotation
			JOINT RightLeg
			{
				OFFSET -2.25006 -6.18201 0.00000
				CHANNELS 3 Zrotation Yrotation Xrotation
				JOINT RightFoot
				{
					OFFSET -2.72829 -7.49593 0.00000
					CHANNELS 3 Zrotation Yrotation Xrotation
					JOINT RightToeBase
					{
						OFFSET -0.21541 -0.59185 2.10643
						CHANNELS 3 Zrotation Yrotation Xrotation
						End Site
						{
							OFFSET -0.00000 -0.00000 1.09838
						}
					}
				}
			}
		}
	}
	JOINT LowerBack
	{
		OFFSET 0 0 0
		CHANNELS 3 Zrotation Yrotation Xrotation
		JOINT Spine
		{
			OFFSET 0.03142 2.10496 -0.11038
			CHANNELS 3 Zrotation Yrotation Xrotation
			JOINT Spine1
			{
				OFFSET -0.01863 2.10897 -0.06956
				CHANNELS 3 Zrotation Yrotation Xrotation
				JOINT Neck
				{
					OFFSET 0 0 0
					CHANNELS 3 Zrotation Yrotation Xrotation
					JOINT Neck1
					{
						OFFSET -0.02267 1.73238 0.00451
						CHANNELS 3 Zrotation Yrotation Xrotation
						JOINT Head
						{
							OFFSET -0.05808 1.54724 -0.61749
							CHANNELS 3 Zrotation Yrotation Xrotation
							End Site
							{
								OFFSET -0.01396 1.71468 -0.21082
							}
						}
					}
				}
				JOINT LeftShoulder
				{
					OFFSET 0 0 0
					CHANNELS 3 Zrotation Yrotation Xrotation
					JOINT LeftArm
					{
						OFFSET 3.44898 0.50298 0.21920
						CHANNELS 3 Zrotation Yrotation Xrotation
						JOINT LeftForeArm
						{
							OFFSET 5.41917 -0.00000 -0.00000
							CHANNELS 3 Zrotation Yrotation Xrotation
							JOINT LeftHand
							{
								OFFSET 2.44373 -0.00000 0.00000
								CHANNELS 3 Zrotation Yrotation Xrotation
								JOINT LeftFingerBase
								{
									OFFSET 0 0 0
									CHANNELS 3 Zrotation Yrotation Xrotation
									JOINT LeftHandIndex1
									{
										OFFSET 0.72750 -0.00000 0.00000
										CHANNELS 3 Zrotation Yrotation Xrotation
										End Site
										{
											OFFSET 0.58653 -0.00000 0.00000
										}
									}
								}
								JOINT LThumb
								{
									OFFSET 0 0 0
									CHANNELS 3 Zrotation Yrotation Xrotation
									End Site
									{
										OFFSET 0.59549 -0.00000 0.59549
									}
								}
							}
						}
					}
				}
				JOINT RightShoulder
				{
					OFFSET 0 0 0
					CHANNELS 3 Zrotation Yrotation Xrotation
					JOINT RightArm
					{
						OFFSET -3.23015 0.55830 0.31051
						CHANNELS 3 Zrotation Yrotation Xrotation
						JOINT RightForeArm
						{
							OFFSET -5.58976 -0.00010 0.00014
							CHANNELS 3 Zrotation Yrotation Xrotation
							JOINT RightHand
							{
								OFFSET -2.48060 -0.00000 0.00000
								CHANNELS 3 Zrotation Yrotation Xrotation
								JOINT RightFingerBase
								{
									OFFSET 0 0 0
									CHANNELS 3 Zrotation Yrotation Xrotation
									JOINT RightHandIndex1
									{
										OFFSET -0.81601 -0.00000 0.00000
										CHANNELS 3 Zrotation Yrotation Xrotation
										End Site
										{
											OFFSET -0.65789 -0.00000 0.00000
										}
									}
								}
								JOINT RThumb
								{
									OFFSET 0 0 0
									CHANNELS 3 Zrotation Yrotation Xrotation
									End Site
									{
										OFFSET -0.66793 -0.00000 0.66793
									}
								}
							}
						}
					}
				}
			}
		}
	}
}
MOTION
Frames: 9
Frame Time: .0083333
2.0531 17.2659 -12.0362 344.7940 -53.7851 30.1448 0.0000 0.0000 0.0000 -18.6706 1.0657 -49.0666 3.4738 11.4251 33.7274 4.3335 18.0550 -48.0936 2.2396 9.3482 26.8908 0.0000 0.0000 0.0000 37.5258 -0.7015 -25.5719 -3.4394 -11.3745 33.5537 2.9882 -32.8172 -30.2713 -0.2407 3.1575 -8.7175 9.5909 2.2885 -1.8414 5.5091 3.5698 -11.2508 0.4171 0.9954 -10.9173 10.2514 15.4817 -8.3808 -17.1180 25.9835 29.6023 -4.0276 10.4573 15.8105 -0.0000 0.0000 0.0000 -46.9198 27.6707 -28.9160 18.5345 -28.8361 -4.8042 -0.0000 -0.0000 37.5705 31.0556 4.5788 2.7522 -7.1250 0.0000 -0.0000 3.6646 35.3013 -0.8746 -0.0000 0.0000 0.0000 40.1198 -32.5840 -61.0713 -9.5407 16.0180 -1.3454 0.0000 0.0000 18.2050 -32.9474 19.8807 -12.4290 7.1250 -0.0000 -0.0000 -2.8838 -6.6924 -2.5313
2.0122 17.2710 -11.9763 346.6090 -52.0682 28.7169 0.0000 0.0000 0.0000 -19.7664 1.1235 -49.2335 3.4280 11.3577 33.4958 4.0806 19.5005 -48.1006 2.2739 9.4147 27.1014 0.0000 0.0000 0.0000 36.9596 -1.0790 -26.0541 -3.5061 -11.4725 33.8905 3.2684 -33.6847 -30.4213 -0.3472 3.7862 -10.4759 8.6962 2.2745 -2.4435 5.2111 3.4294 -11.1953 0.5999 1.0206 -10.4992 10.0262 14.9630 -8.9532 -16.4721 25.2240 30.6819 -3.9092 10.0852 16.1482 0.0000 0.0000 0.0000 -47.3264 27.5048 -31.6946 16.8875 -26.7093 -4.0367 -0.0000 -0.0000 44.1173 34.4786 -1.0542 -0.7239 -7.1250 0.0000 -0.0000 6.1473 28.6792 -2.4559 0.0000 0.0000 0.0000 40.9027 -32.1412 -61.6247 -9.5484 16.0300 -1.3475 0.0000 0.0000 16.0221 -32.8882 20.0984 -12.5279 7.1250 -0.0000 -0.0000 -2.8129 -6.4583 -2.4817
1.9703 17.2602 -11.9332 348.0540 -50.0059 27.7213 0.0000 0.0000 0.0000 -20.7981 1.5701 -49.7995 3.4211 11.3474 33.4605 3.2802 20.7448 -45.9456 1.9929 8.8513 25.3312 0.0000 0.0000 0.0000 36.7301 -1.1723 -26.6489 -3.6029 -11.6124 34.3743 3.6002 -34.7127 -30.7309 -0.4732 4.4117 -12.2379 7.9318 2.2233 -3.1223 4.9636 3.2505 -11.1773 0.7742 1.0122 -10.0844 9.6523 14.3762 -9.4505 -15.7042 24.3125 31.6841 -3.7533 9.6647 16.3646 0.0000 -0.0000 0.0000 -47.5781 27.0053 -31.9755 16.4362 -26.1086 -3.8359 -0.0000 -0.0000 44.2084 34.8715 -1.3147 -0.9160 -7.1250 0.0000 -0.0000 6.4292 28.3555 -2.6194 0.0000 -0.0000 0.0000 41.7419 -31.7367 -64.0648 -9.4681 15.9033 -1.3255 0.0000 0.0000 16.5942 -32.0489 20.9231 -12.6026 7.1250 -0.0000 -0.0000 -2.1599 -5.7156 -1.9354
1.9187 17.2485 -11.8147 348.6030 -48.1012 26.5581 0.0000 0.0000 0.0000 -21.1874 1.7560 -48.8642 3.4272 11.3565 33.4918 2.7239 20.8659 -43.7988 1.7170 8.2499 23.4756 0.0000 0.0000 0.0000 36.5292 -1.9379 -26.2262 -3.7036 -11.7552 34.8715 3.8234 -35.2173 -30.4553 -0.5456 4.7322 -13.1463 8.2132 2.0864 -3.4651 4.9190 3.0156 -10.8080 0.5822 0.9035 -9.4549 9.0519 13.8862 -9.5752 -15.0490 23.5822 32.4435 -3.5825 9.3208 16.4087 -0.0000 -0.0000 0.0000 -48.3030 26.7449 -33.0112 16.2833 -25.9033 -3.7689 -0.0000 -0.0000 43.4891 34.2881 0.0475 0.0324 -7.1250 0.0000 -0.0000 6.0840 30.0090 -2.2369 -0.0000 -0.0000 0.0000 42.1146 -31.0105 -64.3084 -9.5547 16.0401 -1.3493 0.0000 0.0000 15.8240 -32.6271 20.0450 -12.3763 7.1250 -0.0000 -0.0000 -2.6570 -6.5775 -2.3377
1.8675 17.2391 -11.7240 349.0160 -46.2343 26.1519 0.0000 0.0000 0.0000 -21.8515 2.6670 -49.1882 3.4645 11.4116 33.6808 1.5936 21.5205 -39.3629 1.1425 6.7877 19.0880 0.0000 0.0000 0.0000 36.5252 -2.0321 -26.2929 -3.8164 -11.9120 35.4212 3.9716 -35.6433 -30.5741 -0.5636 4.8083 -13.3625 7.9602 1.9390 -4.0340 5.1142 2.7591 -10.8109 0.9521 0.8203 -9.1535 8.4109 13.4133 -9.7466 -14.3126 22.9270 33.5336 -3.3562 8.9873 16.6452 -0.0000 -0.0000 0.0000 -49.3307 26.8972 -34.1233 16.2660 -25.8800 -3.7613 -0.0000 -0.0000 43.4609 34.1314 0.7226 0.4898 -7.1250 0.0000 -0.0000 6.0083 30.8212 -2.0915 -0.0000 -0.0000 0.0000 42.0691 -30.3194 -64.6546 -9.4964 15.9480 -1.3332 0.0000 0.0000 14.8018 -32.9028 20.1051 -12.5386 7.1250 -0.0000 -0.0000 -2.8210 -6.4473 -2.4895
1.8189 17.2299 -11.6378 349.6650 -44.6577 25.5703 0.0000 0.0000 0.0000 -22.7194 3.3687 -49.3335 3.5165 11.4877 33.9428 0.9792 21.4725 -36.2096 0.6584 5.1898 14.4507 0.0000 0.0000 0.0000 36.1944 -1.9058 -26.2021 -3.9087 -12.0379 35.8660 3.8588 -35.6460 -31.4699 -0.4686 4.3904 -12.1778 7.4730 2.0706 -4.4061 4.9243 2.8919 -10.8635 1.0195 0.9281 -8.9902 8.1910 12.7246 -9.9654 -13.6247 21.8560 34.6178 -3.2964 8.5325 16.9118 -0.0000 -0.0000 0.0000 -49.7283 26.6030 -34.5823 16.2048 -25.7976 -3.7347 -0.0000 -0.0000 43.9866 34.1104 1.1644 0.7886 -7.1250 0.0000 -0.0000 6.0214 31.3518 -2.0191 -0.0000 -0.0000 0.0000 42.8662 -30.0626 -66.6308 -9.5716 16.0667 -1.3540 0.0000 0.0000 14.5402 -32.9195 20.0869 -12.5358 7.1250 -0.0000 -0.0000 -2.8343 -6.4643 -2.5003
1.7793 17.2121 -11.5906 350.2330 -42.9212 25.0604 0.0000 0.0000 0.0000 -23.1361 3.3461 -49.3437 3.5834 11.5844 34.2771 0.5361 21.5025 -33.7539 0.2262 3.0615 8.4500 0.0000 0.0000 0.0000 36.1048 -1.4433 -26.2441 -4.0010 -12.1618 36.3068 3.8992 -36.1096 -32.5220 -0.3516 3.8098 -10.5421 7.0199 2.1551 -4.4605 4.6678 3.0032 -10.9324 0.9910 1.0147 -9.0291 8.0847 12.0692 -9.8337 -13.1120 20.7612 35.1404 -3.3290 8.1216 16.8514 0.0000 0.0000 0.0000 -49.9658 26.0783 -34.4569 16.2422 -25.8479 -3.7509 -0.0000 -0.0000 43.1789 33.2609 4.2062 2.7543 -7.1250 0.0000 -0.0000 5.4920 34.9641 -1.3587 0.0000 0.0000 0.0000 43.7966 -30.2780 -65.2242 -9.4942 15.9446 -1.3326 0.0000 0.0000 10.8722 -33.4011 19.9781 -12.6964 7.1250 -0.0000 -0.0000 -3.1538 -6.4785 -2.7821
1.7253 17.2131 -11.4770 350.3140 -40.9240 24.7454 0.0000 0.0000 0.0000 -23.1341 3.3320 -48.8003 3.6538 11.6849 34.6264 0.2748 20.9919 -31.5040 0.0172 0.8478 2.3301 0.0000 0.0000 0.0000 36.3071 -2.2733 -26.1060 -4.0563 -12.2349 36.5682 4.3222 -36.7317 -31.2297 -0.6249 5.0585 -14.0756 7.4609 2.1967 -5.1120 4.5813 2.9861 -10.9083 0.6747 0.9806 -8.6041 7.5984 11.4135 -9.1153 -12.7143 19.7382 35.3453 -3.3534 7.7247 16.4683 0.0000 -0.0000 0.0000 -50.5612 26.1944 -35.5073 15.6817 -25.0872 -3.5099 -0.0000 -0.0000 44.7483 34.0724 2.7847 1.8820 -7.1250 0.0000 -0.0000 6.0910 33.2960 -1.7558 0.0000 -0.0000 0.0000 44.5721 -29.7115 -68.5298 -9.6302 16.1591 -1.3702 0.0000 0.0000 12.3031 -33.1969 20.3936 -12.8441 7.1250 -0.0000 -0.0000 -2.9600 -6.0522 -2.6350
1.6768 17.2086 -11.3631 350.3150 -38.9161 24.3820 0.0000 0.0000 0.0000 -22.8269 3.0005 -48.0125 3.7195 11.7775 34.9492 0.2299 20.1052 -30.0645 0.0024 -0.3168 -0.8706 0.0000 0.0000 0.0000 36.5441 -3.0042 -25.7292 -4.0743 -12.2587 36.6533 4.4023 -36.7465 -30.6294 -0.5051 4.5561 -12.6466 7.8490 2.2221 -5.5607 4.5584 2.9688 -10.8369 0.4493 0.9555 -8.2524 8.6076 11.1206 -9.1657 -13.2882 19.4735 36.2460 -3.8673 7.6429 17.1744 -0.0000 0.0000 0.0000 -51.3129 26.2678 -36.1876 15.3809 -24.6740 -3.3833 -0.0000 -0.0000 45.2287 34.6944 1.4773 1.0225 -7.1250 0.0000 -0.0000 6.5095 31.7341 -2.1244 -0.0000 0.0000 0.0000 45.2701 -29.3017 -70.4193 -9.6392 16.1732 -1.3727 0.0000 0.0000 12.6546 -33.2142 20.4034 -12.8580 7.1250 -0.0000 -0.0000 -2.9693 -6.0371 -2.6442
